<mxfile host="app.diagrams.net" modified="2022-03-16T09:40:00.418Z" agent="5.0 (Windows NT 10.0; Win64; x64) AppleWebKit/537.36 (KHTML, like Gecko) Chrome/99.0.4844.51 Safari/537.36" etag="HCOJgM-VwSihFPTn_aG_" version="17.1.3" type="github" pages="2">
  <diagram id="qVjYyWYhfrcHmNFPCJPf" name="Page-1">
    <mxGraphModel dx="1240" dy="1741" grid="1" gridSize="9" guides="1" tooltips="1" connect="1" arrows="1" fold="1" page="1" pageScale="1" pageWidth="850" pageHeight="1100" math="0" shadow="0">
      <root>
        <mxCell id="0" />
        <mxCell id="1" parent="0" />
        <mxCell id="YWx5Xsb4qW-hL0JxTYxQ-13" style="edgeStyle=orthogonalEdgeStyle;rounded=0;orthogonalLoop=1;jettySize=auto;html=1;entryX=0;entryY=0.5;entryDx=0;entryDy=0;" edge="1" parent="1" source="qeNtTEig7JRPsyWcmKzE-1" target="qeNtTEig7JRPsyWcmKzE-12">
          <mxGeometry relative="1" as="geometry" />
        </mxCell>
        <mxCell id="YWx5Xsb4qW-hL0JxTYxQ-14" style="edgeStyle=orthogonalEdgeStyle;rounded=0;orthogonalLoop=1;jettySize=auto;html=1;entryX=0;entryY=0.5;entryDx=0;entryDy=0;" edge="1" parent="1" source="qeNtTEig7JRPsyWcmKzE-1" target="kjY4QqyRC14Yn_QnmXdj-8">
          <mxGeometry relative="1" as="geometry" />
        </mxCell>
        <mxCell id="qeNtTEig7JRPsyWcmKzE-1" value="User" style="rounded=0;whiteSpace=wrap;html=1;fillColor=#1ba1e2;strokeColor=#006EAF;fontColor=#ffffff;" parent="1" vertex="1">
          <mxGeometry x="396" y="230" width="120" height="64" as="geometry" />
        </mxCell>
        <mxCell id="qeNtTEig7JRPsyWcmKzE-2" value="Id/Nama" style="ellipse;whiteSpace=wrap;html=1;fillColor=#dae8fc;strokeColor=#6c8ebf;" parent="1" vertex="1">
          <mxGeometry x="225" y="144" width="120" height="70" as="geometry" />
        </mxCell>
        <mxCell id="qeNtTEig7JRPsyWcmKzE-4" value="" style="endArrow=none;html=1;rounded=0;exitX=0.5;exitY=0;exitDx=0;exitDy=0;" parent="1" source="qeNtTEig7JRPsyWcmKzE-1" target="qeNtTEig7JRPsyWcmKzE-2" edge="1">
          <mxGeometry width="50" height="50" relative="1" as="geometry">
            <mxPoint x="240" y="180" as="sourcePoint" />
            <mxPoint x="290" y="130" as="targetPoint" />
          </mxGeometry>
        </mxCell>
        <mxCell id="qeNtTEig7JRPsyWcmKzE-5" value="" style="endArrow=none;html=1;rounded=0;exitX=0.5;exitY=0;exitDx=0;exitDy=0;entryX=0.5;entryY=1;entryDx=0;entryDy=0;" parent="1" edge="1" target="qeNtTEig7JRPsyWcmKzE-7" source="qeNtTEig7JRPsyWcmKzE-1">
          <mxGeometry width="50" height="50" relative="1" as="geometry">
            <mxPoint x="240" y="260" as="sourcePoint" />
            <mxPoint x="230" y="160" as="targetPoint" />
          </mxGeometry>
        </mxCell>
        <mxCell id="qeNtTEig7JRPsyWcmKzE-6" value="Nomor/Email" style="ellipse;whiteSpace=wrap;html=1;fillColor=#dae8fc;strokeColor=#6c8ebf;" parent="1" vertex="1">
          <mxGeometry x="441" y="69" width="120" height="60" as="geometry" />
        </mxCell>
        <mxCell id="qeNtTEig7JRPsyWcmKzE-7" value="Password" style="ellipse;whiteSpace=wrap;html=1;fillColor=#dae8fc;strokeColor=#6c8ebf;" parent="1" vertex="1">
          <mxGeometry x="305" y="81" width="120" height="60" as="geometry" />
        </mxCell>
        <mxCell id="qeNtTEig7JRPsyWcmKzE-11" value="" style="endArrow=none;html=1;rounded=0;entryX=0.5;entryY=1;entryDx=0;entryDy=0;exitX=0.5;exitY=0;exitDx=0;exitDy=0;" parent="1" edge="1" target="qeNtTEig7JRPsyWcmKzE-6" source="qeNtTEig7JRPsyWcmKzE-1">
          <mxGeometry width="50" height="50" relative="1" as="geometry">
            <mxPoint x="441" y="198" as="sourcePoint" />
            <mxPoint x="330" y="80" as="targetPoint" />
          </mxGeometry>
        </mxCell>
        <mxCell id="YWx5Xsb4qW-hL0JxTYxQ-22" style="edgeStyle=orthogonalEdgeStyle;rounded=0;orthogonalLoop=1;jettySize=auto;html=1;entryX=0.5;entryY=1;entryDx=0;entryDy=0;" edge="1" parent="1" source="qeNtTEig7JRPsyWcmKzE-12" target="YWx5Xsb4qW-hL0JxTYxQ-15">
          <mxGeometry relative="1" as="geometry" />
        </mxCell>
        <mxCell id="qeNtTEig7JRPsyWcmKzE-12" value="Novel" style="rounded=0;whiteSpace=wrap;html=1;fillColor=#1ba1e2;strokeColor=#006EAF;fontColor=#ffffff;" parent="1" vertex="1">
          <mxGeometry x="675" y="339" width="120" height="60" as="geometry" />
        </mxCell>
        <mxCell id="qeNtTEig7JRPsyWcmKzE-13" value="Judul/Nama Novel" style="ellipse;whiteSpace=wrap;html=1;fillColor=#dae8fc;strokeColor=#6c8ebf;" parent="1" vertex="1">
          <mxGeometry x="549" y="435" width="120" height="60" as="geometry" />
        </mxCell>
        <mxCell id="qeNtTEig7JRPsyWcmKzE-14" value="Kategori/jenis" style="ellipse;whiteSpace=wrap;html=1;fillColor=#dae8fc;strokeColor=#6c8ebf;" parent="1" vertex="1">
          <mxGeometry x="630" y="495" width="120" height="60" as="geometry" />
        </mxCell>
        <mxCell id="qeNtTEig7JRPsyWcmKzE-15" value="Status" style="ellipse;whiteSpace=wrap;html=1;fillColor=#dae8fc;strokeColor=#6c8ebf;" parent="1" vertex="1">
          <mxGeometry x="765" y="540" width="120" height="60" as="geometry" />
        </mxCell>
        <mxCell id="qeNtTEig7JRPsyWcmKzE-16" value="TerHot" style="ellipse;whiteSpace=wrap;html=1;fillColor=#dae8fc;strokeColor=#6c8ebf;" parent="1" vertex="1">
          <mxGeometry x="837" y="450" width="120" height="60" as="geometry" />
        </mxCell>
        <mxCell id="qeNtTEig7JRPsyWcmKzE-18" value="" style="endArrow=none;html=1;rounded=0;exitX=0.5;exitY=1;exitDx=0;exitDy=0;" parent="1" target="qeNtTEig7JRPsyWcmKzE-14" edge="1" source="qeNtTEig7JRPsyWcmKzE-12">
          <mxGeometry width="50" height="50" relative="1" as="geometry">
            <mxPoint x="495" y="549" as="sourcePoint" />
            <mxPoint x="384.44000000000005" y="489.24" as="targetPoint" />
          </mxGeometry>
        </mxCell>
        <mxCell id="qeNtTEig7JRPsyWcmKzE-19" value="" style="endArrow=none;html=1;rounded=0;entryX=0.5;entryY=0;entryDx=0;entryDy=0;exitX=0.5;exitY=1;exitDx=0;exitDy=0;" parent="1" source="qeNtTEig7JRPsyWcmKzE-12" target="qeNtTEig7JRPsyWcmKzE-15" edge="1">
          <mxGeometry width="50" height="50" relative="1" as="geometry">
            <mxPoint x="495" y="594" as="sourcePoint" />
            <mxPoint x="558" y="432" as="targetPoint" />
          </mxGeometry>
        </mxCell>
        <mxCell id="YWx5Xsb4qW-hL0JxTYxQ-19" style="edgeStyle=orthogonalEdgeStyle;rounded=0;orthogonalLoop=1;jettySize=auto;html=1;entryX=0.5;entryY=0;entryDx=0;entryDy=0;" edge="1" parent="1" source="kjY4QqyRC14Yn_QnmXdj-8" target="YWx5Xsb4qW-hL0JxTYxQ-15">
          <mxGeometry relative="1" as="geometry" />
        </mxCell>
        <mxCell id="kjY4QqyRC14Yn_QnmXdj-8" value="Komik" style="rounded=0;whiteSpace=wrap;html=1;fillColor=#1ba1e2;fontColor=#ffffff;strokeColor=#006EAF;" parent="1" vertex="1">
          <mxGeometry x="675" y="129" width="120" height="60" as="geometry" />
        </mxCell>
        <mxCell id="YWx5Xsb4qW-hL0JxTYxQ-1" value="Judul/Nama" style="ellipse;whiteSpace=wrap;html=1;fillColor=#dae8fc;strokeColor=#6c8ebf;" vertex="1" parent="1">
          <mxGeometry x="603" width="120" height="60" as="geometry" />
        </mxCell>
        <mxCell id="YWx5Xsb4qW-hL0JxTYxQ-2" value="Status" style="ellipse;whiteSpace=wrap;html=1;fillColor=#dae8fc;strokeColor=#6c8ebf;" vertex="1" parent="1">
          <mxGeometry x="846" y="40" width="120" height="60" as="geometry" />
        </mxCell>
        <mxCell id="YWx5Xsb4qW-hL0JxTYxQ-3" value="Rekomendasi" style="ellipse;whiteSpace=wrap;html=1;fillColor=#dae8fc;strokeColor=#6c8ebf;" vertex="1" parent="1">
          <mxGeometry x="795" y="-33" width="120" height="60" as="geometry" />
        </mxCell>
        <mxCell id="YWx5Xsb4qW-hL0JxTYxQ-4" value="kategori/jenis" style="ellipse;whiteSpace=wrap;html=1;fillColor=#dae8fc;strokeColor=#6c8ebf;" vertex="1" parent="1">
          <mxGeometry x="675" y="-72" width="120" height="60" as="geometry" />
        </mxCell>
        <mxCell id="YWx5Xsb4qW-hL0JxTYxQ-5" value="" style="endArrow=none;html=1;rounded=0;entryX=0.675;entryY=1.05;entryDx=0;entryDy=0;entryPerimeter=0;exitX=0.5;exitY=0;exitDx=0;exitDy=0;" edge="1" parent="1" source="kjY4QqyRC14Yn_QnmXdj-8" target="YWx5Xsb4qW-hL0JxTYxQ-1">
          <mxGeometry width="50" height="50" relative="1" as="geometry">
            <mxPoint x="675" y="126" as="sourcePoint" />
            <mxPoint x="788" y="79" as="targetPoint" />
          </mxGeometry>
        </mxCell>
        <mxCell id="YWx5Xsb4qW-hL0JxTYxQ-6" value="" style="endArrow=none;html=1;rounded=0;exitX=0.5;exitY=0;exitDx=0;exitDy=0;" edge="1" parent="1" source="kjY4QqyRC14Yn_QnmXdj-8">
          <mxGeometry width="50" height="50" relative="1" as="geometry">
            <mxPoint x="747" y="135" as="sourcePoint" />
            <mxPoint x="738" y="-9" as="targetPoint" />
          </mxGeometry>
        </mxCell>
        <mxCell id="YWx5Xsb4qW-hL0JxTYxQ-7" value="" style="endArrow=none;html=1;rounded=0;entryX=0.256;entryY=1.01;entryDx=0;entryDy=0;entryPerimeter=0;exitX=0.5;exitY=0;exitDx=0;exitDy=0;" edge="1" parent="1" source="kjY4QqyRC14Yn_QnmXdj-8" target="YWx5Xsb4qW-hL0JxTYxQ-3">
          <mxGeometry width="50" height="50" relative="1" as="geometry">
            <mxPoint x="792" y="108" as="sourcePoint" />
            <mxPoint x="747" as="targetPoint" />
          </mxGeometry>
        </mxCell>
        <mxCell id="YWx5Xsb4qW-hL0JxTYxQ-8" value="" style="endArrow=none;html=1;rounded=0;entryX=0;entryY=0.5;entryDx=0;entryDy=0;exitX=0.5;exitY=0;exitDx=0;exitDy=0;" edge="1" parent="1" source="kjY4QqyRC14Yn_QnmXdj-8" target="YWx5Xsb4qW-hL0JxTYxQ-2">
          <mxGeometry width="50" height="50" relative="1" as="geometry">
            <mxPoint x="744.0000000000002" y="138.00000000000023" as="sourcePoint" />
            <mxPoint x="834.7199999999998" y="36.600000000000136" as="targetPoint" />
          </mxGeometry>
        </mxCell>
        <mxCell id="YWx5Xsb4qW-hL0JxTYxQ-11" value="" style="endArrow=none;html=1;rounded=0;entryX=0.5;entryY=0;entryDx=0;entryDy=0;exitX=0.5;exitY=1;exitDx=0;exitDy=0;" edge="1" parent="1" source="qeNtTEig7JRPsyWcmKzE-12" target="qeNtTEig7JRPsyWcmKzE-13">
          <mxGeometry width="50" height="50" relative="1" as="geometry">
            <mxPoint x="555.8780487804879" y="389" as="sourcePoint" />
            <mxPoint x="573" y="441" as="targetPoint" />
          </mxGeometry>
        </mxCell>
        <mxCell id="YWx5Xsb4qW-hL0JxTYxQ-12" value="" style="endArrow=none;html=1;rounded=0;entryX=0;entryY=0;entryDx=0;entryDy=0;exitX=0.5;exitY=1;exitDx=0;exitDy=0;" edge="1" parent="1" source="qeNtTEig7JRPsyWcmKzE-12" target="qeNtTEig7JRPsyWcmKzE-16">
          <mxGeometry width="50" height="50" relative="1" as="geometry">
            <mxPoint x="546" y="389" as="sourcePoint" />
            <mxPoint x="618" y="495" as="targetPoint" />
          </mxGeometry>
        </mxCell>
        <mxCell id="YWx5Xsb4qW-hL0JxTYxQ-15" value="Library" style="rounded=0;whiteSpace=wrap;html=1;fillColor=#1ba1e2;strokeColor=#006EAF;fontColor=#ffffff;" vertex="1" parent="1">
          <mxGeometry x="927" y="234" width="120" height="60" as="geometry" />
        </mxCell>
        <mxCell id="YWx5Xsb4qW-hL0JxTYxQ-16" value="Komik" style="ellipse;whiteSpace=wrap;html=1;fillColor=#dae8fc;strokeColor=#6c8ebf;" vertex="1" parent="1">
          <mxGeometry x="1089" y="60" width="120" height="60" as="geometry" />
        </mxCell>
        <mxCell id="YWx5Xsb4qW-hL0JxTYxQ-17" value="Novel" style="ellipse;whiteSpace=wrap;html=1;fillColor=#dae8fc;strokeColor=#6c8ebf;" vertex="1" parent="1">
          <mxGeometry x="1170" y="234" width="120" height="60" as="geometry" />
        </mxCell>
        <mxCell id="YWx5Xsb4qW-hL0JxTYxQ-18" value="Riwayat" style="ellipse;whiteSpace=wrap;html=1;fillColor=#dae8fc;strokeColor=#6c8ebf;" vertex="1" parent="1">
          <mxGeometry x="1089" y="399" width="120" height="60" as="geometry" />
        </mxCell>
        <mxCell id="YWx5Xsb4qW-hL0JxTYxQ-24" value="Upadate &amp;amp; Menyimpan" style="text;html=1;strokeColor=none;fillColor=none;align=center;verticalAlign=middle;whiteSpace=wrap;rounded=0;" vertex="1" parent="1">
          <mxGeometry x="867" y="159" width="60" height="30" as="geometry" />
        </mxCell>
        <mxCell id="YWx5Xsb4qW-hL0JxTYxQ-27" value="Upadate &amp;amp; Menyimpan" style="text;html=1;strokeColor=none;fillColor=none;align=center;verticalAlign=middle;whiteSpace=wrap;rounded=0;" vertex="1" parent="1">
          <mxGeometry x="867" y="333" width="60" height="30" as="geometry" />
        </mxCell>
        <mxCell id="YWx5Xsb4qW-hL0JxTYxQ-29" value="" style="endArrow=none;html=1;rounded=0;entryX=0.5;entryY=1;entryDx=0;entryDy=0;exitX=1;exitY=0.5;exitDx=0;exitDy=0;" edge="1" parent="1" source="YWx5Xsb4qW-hL0JxTYxQ-15" target="YWx5Xsb4qW-hL0JxTYxQ-16">
          <mxGeometry width="50" height="50" relative="1" as="geometry">
            <mxPoint x="1080" y="261" as="sourcePoint" />
            <mxPoint x="1164" y="214" as="targetPoint" />
          </mxGeometry>
        </mxCell>
        <mxCell id="YWx5Xsb4qW-hL0JxTYxQ-30" value="" style="endArrow=none;html=1;rounded=0;entryX=0;entryY=0.5;entryDx=0;entryDy=0;exitX=1;exitY=0.5;exitDx=0;exitDy=0;" edge="1" parent="1" source="YWx5Xsb4qW-hL0JxTYxQ-15" target="YWx5Xsb4qW-hL0JxTYxQ-17">
          <mxGeometry width="50" height="50" relative="1" as="geometry">
            <mxPoint x="1056" y="273.0000000000002" as="sourcePoint" />
            <mxPoint x="1158" y="128.99999999999977" as="targetPoint" />
          </mxGeometry>
        </mxCell>
        <mxCell id="YWx5Xsb4qW-hL0JxTYxQ-31" value="" style="endArrow=none;html=1;rounded=0;entryX=0.5;entryY=0;entryDx=0;entryDy=0;exitX=1;exitY=0.5;exitDx=0;exitDy=0;" edge="1" parent="1" source="YWx5Xsb4qW-hL0JxTYxQ-15" target="YWx5Xsb4qW-hL0JxTYxQ-18">
          <mxGeometry width="50" height="50" relative="1" as="geometry">
            <mxPoint x="1089" y="288" as="sourcePoint" />
            <mxPoint x="1158" y="128.99999999999977" as="targetPoint" />
          </mxGeometry>
        </mxCell>
      </root>
    </mxGraphModel>
  </diagram>
  <diagram id="nIDpKrbi_LP71oFm0c6B" name="Page-2">
    <mxGraphModel dx="868" dy="449" grid="1" gridSize="9" guides="1" tooltips="1" connect="1" arrows="1" fold="1" page="1" pageScale="1" pageWidth="850" pageHeight="1100" math="0" shadow="0">
      <root>
        <mxCell id="ak5yH-f4zvsO2PF_TNaP-0" />
        <mxCell id="ak5yH-f4zvsO2PF_TNaP-1" parent="ak5yH-f4zvsO2PF_TNaP-0" />
      </root>
    </mxGraphModel>
  </diagram>
</mxfile>
